# xmcd CD database file
#
# Track frame offsets:
#	150
#	17607
#	32240
#	50522
#	68632
#	84780
#	101022
#	122712
#	140977
#	159627
#	178617
#
# Disc length: 2619 seconds
#
# Revision: 3
# Processed by: cddbd v1.4PL0 Copyright (c) Steve Scherf et al.
# Submitted via: CDex 1.51
#
DISCID=900a390b
DTITLE=Gringos Locos - Gringos Locos
DYEAR=1900
DGENRE=
TTITLE0=Higher Than High
TTITLE1=Sweet Little Sisters
TTITLE2=Jealousy
TTITLE3=Mountain
TTITLE4=I Ain't Braggin'
TTITLE5=Mean Rock'n'Roller
TTITLE6=Susie
TTITLE7=Shout
TTITLE8=Bad Luck's Lament
TTITLE9=Tough Kid
TTITLE10=The Blues
EXTD=
EXTT0=
EXTT1=
EXTT2=
EXTT3=
EXTT4=
EXTT5=
EXTT6=
EXTT7=
EXTT8=
EXTT9=
EXTT10=
PLAYORDER=
